# xmcd
# 
# Track frame offsets:
#     150
#     23943
#     53055
#     74046
#     96268
#     112107
#     139507
#     171762
#     197996
#     221475
#     237439
#     251847
# 
# Disc length: 3540
# 
# Revision: 0
# Processed by: cddbd v1.5.2PL0 Copyright (c) Steve Scherf et al.
# Submitted via: BonkEnc v1.0.15
# 
DISCID=b90dd20c
DTITLE=B.B. King - Thrill Ain't Gone, Noway Baby
DYEAR=0
DGENRE=Blues
TTITLE0=The Thrill Is Gone
TTITLE1=Paying The Cost To Be The Boss
TTITLE2=Why I Sing The Blues
TTITLE3=Everyday I Have The Blues
TTITLE4=Caldonia
TTITLE5=Sweet Little Angel
TTITLE6=All Over Again
TTITLE7=Guess Who
TTITLE8=Darling You Know I Love You
TTITLE9=Outside Step
TTITLE10=The Letter
TTITLE11=Please Love Me
EXTD=
EXTT0=
EXTT1=
EXTT2=
EXTT3=
EXTT4=
EXTT5=
EXTT6=
EXTT7=
EXTT8=
EXTT9=
EXTT10=
EXTT11=
PLAYORDER=
